<mxfile host="app.diagrams.net" agent="Mozilla/5.0 (Windows NT 10.0; Win64; x64) AppleWebKit/537.36 (KHTML, like Gecko) Chrome/128.0.0.0 Safari/537.36 Edg/128.0.0.0" version="24.7.17">
  <diagram name="第 1 页" id="sbOF9vrh2LZpfqkAtuBA">
    <mxGraphModel dx="1148" dy="668" grid="1" gridSize="10" guides="1" tooltips="1" connect="1" arrows="1" fold="1" page="1" pageScale="1" pageWidth="827" pageHeight="1169" math="0" shadow="0">
      <root>
        <mxCell id="0" />
        <mxCell id="1" parent="0" />
        <mxCell id="BBmbCgnYEPjefkQqMxjm-4" style="rounded=0;orthogonalLoop=1;jettySize=auto;html=1;entryX=0;entryY=0.5;entryDx=0;entryDy=0;startArrow=classic;startFill=1;shape=flexArrow;width=10;" edge="1" parent="1">
          <mxGeometry relative="1" as="geometry">
            <mxPoint x="180" y="349.5" as="sourcePoint" />
            <mxPoint x="300" y="349.5" as="targetPoint" />
            <Array as="points">
              <mxPoint x="220" y="349.5" />
              <mxPoint x="250" y="349.5" />
            </Array>
          </mxGeometry>
        </mxCell>
        <mxCell id="BBmbCgnYEPjefkQqMxjm-1" value="&lt;font style=&quot;font-size: 18px;&quot;&gt;风机上的传感器与检测设备&lt;/font&gt;&lt;div&gt;&lt;font style=&quot;font-size: 18px;&quot;&gt;（下位机）&lt;/font&gt;&lt;/div&gt;" style="rounded=0;whiteSpace=wrap;html=1;" vertex="1" parent="1">
          <mxGeometry x="60" y="310" width="120" height="80" as="geometry" />
        </mxCell>
        <mxCell id="BBmbCgnYEPjefkQqMxjm-5" style="rounded=0;orthogonalLoop=1;jettySize=auto;html=1;shape=flexArrow;startArrow=block;" edge="1" parent="1" source="BBmbCgnYEPjefkQqMxjm-2">
          <mxGeometry relative="1" as="geometry">
            <mxPoint x="540" y="350" as="targetPoint" />
          </mxGeometry>
        </mxCell>
        <mxCell id="BBmbCgnYEPjefkQqMxjm-2" value="&lt;font style=&quot;font-size: 18px;&quot;&gt;中央控制中心&lt;/font&gt;&lt;div&gt;&lt;span style=&quot;font-size: 18px;&quot;&gt;（上位机）&lt;/span&gt;&lt;/div&gt;" style="rounded=0;whiteSpace=wrap;html=1;" vertex="1" parent="1">
          <mxGeometry x="300" y="310" width="120" height="80" as="geometry" />
        </mxCell>
        <mxCell id="BBmbCgnYEPjefkQqMxjm-3" value="&lt;font style=&quot;font-size: 18px;&quot;&gt;远程控制中心&lt;/font&gt;" style="rounded=0;whiteSpace=wrap;html=1;" vertex="1" parent="1">
          <mxGeometry x="540" y="310" width="120" height="80" as="geometry" />
        </mxCell>
        <mxCell id="BBmbCgnYEPjefkQqMxjm-6" value="&lt;font style=&quot;font-size: 18px;&quot;&gt;网络&lt;/font&gt;" style="text;html=1;align=center;verticalAlign=middle;resizable=0;points=[];autosize=1;strokeColor=none;fillColor=none;" vertex="1" parent="1">
          <mxGeometry x="210" y="313" width="60" height="40" as="geometry" />
        </mxCell>
        <mxCell id="BBmbCgnYEPjefkQqMxjm-8" value="&lt;font style=&quot;font-size: 18px;&quot;&gt;网络&lt;/font&gt;" style="text;html=1;align=center;verticalAlign=middle;resizable=0;points=[];autosize=1;strokeColor=none;fillColor=none;" vertex="1" parent="1">
          <mxGeometry x="450" y="313" width="60" height="40" as="geometry" />
        </mxCell>
      </root>
    </mxGraphModel>
  </diagram>
</mxfile>
